# xmcd CD database file
#
# Track frame offsets:
#	150
#	16508
#	37010
#	51185
#	65213
#	85258
#	102021
#	114363
#	126422
#	141700
#	160409
#	170898
#	190942
#	205451
#	226033
#	246413
#
# Disc length: 3480 seconds
#
# Revision: 0
# Processed by: cddbd v1.5.2PL0 Copyright (c) Steve Scherf et al.
# Submitted via: CDex 1.70beta2
#
DISCID=eb0d9610
DTITLE=Harry Kanters - How About Rita
DYEAR=2017
DGENRE=Jazz
TTITLE0=Always True to You in my Fashion
TTITLE1=Ooh-Shoo-Be-Doo-Bee
TTITLE2=A Strawberry Moon (in a Blueberry Sky)
TTITLE3=I'm Forever Blowing Bubbles
TTITLE4=Golden Earrings
TTITLE5=How About Rita
TTITLE6=Mambo Italiano
TTITLE7=Bless You for the Good that's in You
TTITLE8=Beat Me Daddy, Eight to the Bar
TTITLE9=Azure-Te (Paris Blues)
TTITLE10=And her Tears Flowed Like Wine
TTITLE11='Deed I Do
TTITLE12=My Small Senor (with the Sonriente Eyes)
TTITLE13=If I Were a Bell
TTITLE14=Just for a Thrill
TTITLE15=I Don't Care
EXTD=YEAR: 2017
EXTT0=
EXTT1=
EXTT2=
EXTT3=
EXTT4=
EXTT5=
EXTT6=
EXTT7=
EXTT8=
EXTT9=
EXTT10=
EXTT11=
EXTT12=
EXTT13=
EXTT14=
EXTT15=
PLAYORDER=
